<svg width="60" height="38" viewBox="0 0 60 38" fill="none" xmlns="http://www.w3.org/2000/svg">
<path d="M34 4C34 1.79086 32.2091 -9.65645e-08 30 0C27.7909 9.65645e-08 26 1.79086 26 4L34 4ZM27.1716 36.8284C28.7337 38.3905 31.2663 38.3905 32.8284 36.8284L58.2843 11.3726C59.8464 9.81048 59.8464 7.27782 58.2843 5.71573C56.7222 4.15363 54.1895 4.15363 52.6274 5.71573L30 28.3431L7.37258 5.71573C5.81049 4.15363 3.27783 4.15363 1.71573 5.71573C0.153631 7.27783 0.153631 9.81049 1.71573 11.3726L27.1716 36.8284ZM26 4L26 34L34 34L34 4L26 4Z" fill="white"/>
</svg>
